# xmcd
#
# Track frame offsets: 
#        150
#        16042
#        41190
#        59508
#        117955
#        141162
#        175033
#        193610
#        215569
#        248823
#        258923
#        291279
#        324505
#
# Disc length: 4656 seconds
#
# Revision: 0
# Processed by: cddbd v1.5.2PL0 Copyright (c) Steve Scherf et al.
# Submitted via: ExactAudioCopy v0.95b3
#
DISCID=c0122e0d
DTITLE=Chicago  - Nassau Coliseum Uniondale NY FM 1977 - Disc 2
DYEAR=1900
DGENRE=
TTITLE0=Anyway You Want
TTITLE1=Question 67 and 68
TTITLE2=Scrapbook
TTITLE3=A Hit by Varese
TTITLE4=If You Leave Me Now
TTITLE5=Takin' It on Uptown
TTITLE6=Saturday In The Park
TTITLE7=Searching So Long
TTITLE8=Mononucleosis
TTITLE9=Drum Solo
TTITLE10=25 Or 6 To 4
TTITLE11=I'm A Man
TTITLE12=Feeling Stronger Everyday
EXTD=
EXTT0=
EXTT1=
EXTT2=
EXTT3=
EXTT4=
EXTT5=
EXTT6=
EXTT7=
EXTT8=
EXTT9=
EXTT10=
EXTT11=
EXTT12=
PLAYORDER=
